<mxfile host="app.diagrams.net" modified="2023-04-10T12:00:00.000Z" agent="5.0 (Windows NT 10.0; Win64; x64)" etag="core_classes" version="14.6.13" type="device">
  <diagram id="BattleField-Core" name="BattleField Core Classes">
    <mxGraphModel dx="1422" dy="762" grid="1" gridSize="10" guides="1" tooltips="1" connect="1" arrows="1" fold="1" page="1" pageScale="1" pageWidth="827" pageHeight="1169" math="0" shadow="0">
      <root>
        <mxCell id="0" />
        <mxCell id="1" parent="0" />
        
        <!-- BattleField class -->
        <mxCell id="2" value="&lt;&lt;MonoBehaviour&gt;&gt;&#xa;BattleField" style="swimlane;fontStyle=1;align=center;verticalAlign=top;childLayout=stackLayout;horizontal=1;startSize=40;horizontalStack=0;resizeParent=1;resizeParentMax=0;resizeLast=0;collapsible=1;marginBottom=0;" vertex="1" parent="1">
          <mxGeometry x="290" y="40" width="260" height="220" as="geometry" />
        </mxCell>
        <mxCell id="3" value="- grid: BattleGrid&#xa;- heroes: List&lt;BattleUnit&gt;&#xa;- enemies: List&lt;BattleUnit&gt;&#xa;- heroBoss: BattleUnit&#xa;- enemyBoss: BattleUnit&#xa;- healthBar: BattleHeroHealthBar&#xa;- unitPrefab: GameObject&#xa;- teleportPrefab: GameObject&#xa;- cinemachineTargetGroup: CinemachineTargetGroup" style="text;strokeColor=none;fillColor=none;align=left;verticalAlign=top;spacingLeft=4;spacingRight=4;overflow=hidden;rotatable=0;points=[[0,0.5],[1,0.5]];portConstraint=eastwest;" vertex="1" parent="2">
          <mxGeometry y="40" width="260" height="140" as="geometry" />
        </mxCell>
        <mxCell id="4" value="" style="line;strokeWidth=1;fillColor=none;align=left;verticalAlign=middle;spacingTop=-1;spacingLeft=3;spacingRight=3;rotatable=0;labelPosition=right;points=[];portConstraint=eastwest;strokeColor=inherit;" vertex="1" parent="2">
          <mxGeometry y="180" width="260" height="8" as="geometry" />
        </mxCell>
        <mxCell id="5" value="+ FindPathToUnitAttackPosition()&#xa;+ FindPathToCell()&#xa;+ GetUnitCount(bool isHero): int" style="text;strokeColor=none;fillColor=none;align=left;verticalAlign=top;spacingLeft=4;spacingRight=4;overflow=hidden;rotatable=0;points=[[0,0.5],[1,0.5]];portConstraint=eastwest;" vertex="1" parent="2">
          <mxGeometry y="188" width="260" height="32" as="geometry" />
        </mxCell>
        
        <!-- BattleGrid class -->
        <mxCell id="6" value="&lt;&lt;MonoBehaviour&gt;&gt;&#xa;BattleGrid" style="swimlane;fontStyle=1;align=center;verticalAlign=top;childLayout=stackLayout;horizontal=1;startSize=40;horizontalStack=0;resizeParent=1;resizeParentMax=0;resizeLast=0;collapsible=1;marginBottom=0;" vertex="1" parent="1">
          <mxGeometry x="290" y="290" width="260" height="180" as="geometry" />
        </mxCell>
        <mxCell id="7" value="+ width: int&#xa;+ height: int&#xa;+ cellWidth: float&#xa;+ cellHeight: float&#xa;+ offsetX: float&#xa;- cells: BattleCell[,]" style="text;strokeColor=none;fillColor=none;align=left;verticalAlign=top;spacingLeft=4;spacingRight=4;overflow=hidden;rotatable=0;points=[[0,0.5],[1,0.5]];portConstraint=eastwest;" vertex="1" parent="6">
          <mxGeometry y="40" width="260" height="90" as="geometry" />
        </mxCell>
        <mxCell id="8" value="" style="line;strokeWidth=1;fillColor=none;align=left;verticalAlign=middle;spacingTop=-1;spacingLeft=3;spacingRight=3;rotatable=0;labelPosition=right;points=[];portConstraint=eastwest;strokeColor=inherit;" vertex="1" parent="6">
          <mxGeometry y="130" width="260" height="8" as="geometry" />
        </mxCell>
        <mxCell id="9" value="+ GetCell(int x, int y): BattleCell&#xa;+ FindPathAsync(BattleCell, List&lt;BattleCell&gt;,&#xa;  Action&lt;List&lt;BattleCell&gt;&gt;): UniTask&#xa;+ GetRandomSpawnPoint(BattleUnit): BattleCell" style="text;strokeColor=none;fillColor=none;align=left;verticalAlign=top;spacingLeft=4;spacingRight=4;overflow=hidden;rotatable=0;points=[[0,0.5],[1,0.5]];portConstraint=eastwest;" vertex="1" parent="6">
          <mxGeometry y="138" width="260" height="42" as="geometry" />
        </mxCell>
        
        <!-- BattleCell class -->
        <mxCell id="10" value="BattleCell" style="swimlane;fontStyle=1;align=center;verticalAlign=top;childLayout=stackLayout;horizontal=1;startSize=26;horizontalStack=0;resizeParent=1;resizeParentMax=0;resizeLast=0;collapsible=1;marginBottom=0;" vertex="1" parent="1">
          <mxGeometry x="50" y="290" width="190" height="180" as="geometry" />
        </mxCell>
        <mxCell id="11" value="+ CellPos: Vector2Int&#xa;+ IsWalkable: bool&#xa;+ Width: float&#xa;+ Height: float&#xa;+ WorldPosition: Vector3&#xa;+ Unit: BattleUnit" style="text;strokeColor=none;fillColor=none;align=left;verticalAlign=top;spacingLeft=4;spacingRight=4;overflow=hidden;rotatable=0;points=[[0,0.5],[1,0.5]];portConstraint=eastwest;" vertex="1" parent="10">
          <mxGeometry y="26" width="190" height="94" as="geometry" />
        </mxCell>
        <mxCell id="12" value="" style="line;strokeWidth=1;fillColor=none;align=left;verticalAlign=middle;spacingTop=-1;spacingLeft=3;spacingRight=3;rotatable=0;labelPosition=right;points=[];portConstraint=eastwest;strokeColor=inherit;" vertex="1" parent="10">
          <mxGeometry y="120" width="190" height="8" as="geometry" />
        </mxCell>
        <mxCell id="13" value="+ BattleCell(int x, int y, bool,&#xa;  float width, float height,&#xa;  Vector3 worldPosition)&#xa;+ IsAvailableCell(): bool" style="text;strokeColor=none;fillColor=none;align=left;verticalAlign=top;spacingLeft=4;spacingRight=4;overflow=hidden;rotatable=0;points=[[0,0.5],[1,0.5]];portConstraint=eastwest;" vertex="1" parent="10">
          <mxGeometry y="128" width="190" height="52" as="geometry" />
        </mxCell>
        
        <!-- Pathfinding class -->
        <mxCell id="14" value="&lt;&lt;static&gt;&gt;&#xa;Pathfinding" style="swimlane;fontStyle=1;align=center;verticalAlign=top;childLayout=stackLayout;horizontal=1;startSize=40;horizontalStack=0;resizeParent=1;resizeParentMax=0;resizeLast=0;collapsible=1;marginBottom=0;" vertex="1" parent="1">
          <mxGeometry x="50" y="500" width="240" height="140" as="geometry" />
        </mxCell>
        <mxCell id="15" value="" style="line;strokeWidth=1;fillColor=none;align=left;verticalAlign=middle;spacingTop=-1;spacingLeft=3;spacingRight=3;rotatable=0;labelPosition=right;points=[];portConstraint=eastwest;strokeColor=inherit;" vertex="1" parent="14">
          <mxGeometry y="40" width="240" height="8" as="geometry" />
        </mxCell>
        <mxCell id="16" value="+ FindPath(BattleCell[,], BattleCell,&#xa;  List&lt;BattleCell&gt;): List&lt;BattleCell&gt;&#xa;+ GetManhattanDistance(BattleCell,&#xa;  BattleCell): int&#xa;+ GetDistance(BattleCell, BattleCell): float&#xa;+ GetBestTargetDistance(BattleCell,&#xa;  List&lt;BattleCell&gt;): float" style="text;strokeColor=none;fillColor=none;align=left;verticalAlign=top;spacingLeft=4;spacingRight=4;overflow=hidden;rotatable=0;points=[[0,0.5],[1,0.5]];portConstraint=eastwest;" vertex="1" parent="14">
          <mxGeometry y="48" width="240" height="92" as="geometry" />
        </mxCell>
        
        <!-- BattleFieldEnemySpawner class -->
        <mxCell id="17" value="BattleFieldEnemySpawner" style="swimlane;fontStyle=1;align=center;verticalAlign=top;childLayout=stackLayout;horizontal=1;startSize=26;horizontalStack=0;resizeParent=1;resizeParentMax=0;resizeLast=0;collapsible=1;marginBottom=0;" vertex="1" parent="1">
          <mxGeometry x="590" y="40" width="220" height="120" as="geometry" />
        </mxCell>
        <mxCell id="18" value="- spawnData: string[]&#xa;+ OnSpawn: event Action&lt;int, int&gt;" style="text;strokeColor=none;fillColor=none;align=left;verticalAlign=top;spacingLeft=4;spacingRight=4;overflow=hidden;rotatable=0;points=[[0,0.5],[1,0.5]];portConstraint=eastwest;" vertex="1" parent="17">
          <mxGeometry y="26" width="220" height="34" as="geometry" />
        </mxCell>
        <mxCell id="19" value="" style="line;strokeWidth=1;fillColor=none;align=left;verticalAlign=middle;spacingTop=-1;spacingLeft=3;spacingRight=3;rotatable=0;labelPosition=right;points=[];portConstraint=eastwest;strokeColor=inherit;" vertex="1" parent="17">
          <mxGeometry y="60" width="220" height="8" as="geometry" />
        </mxCell>
        <mxCell id="20" value="+ BattleFieldEnemySpawner(string[])&#xa;+ Update()&#xa;+ ParseSpawnData(string): bool" style="text;strokeColor=none;fillColor=none;align=left;verticalAlign=top;spacingLeft=4;spacingRight=4;overflow=hidden;rotatable=0;points=[[0,0.5],[1,0.5]];portConstraint=eastwest;" vertex="1" parent="17">
          <mxGeometry y="68" width="220" height="52" as="geometry" />
        </mxCell>
        
        <!-- BattleHeroHealthBar class -->
        <mxCell id="21" value="&lt;&lt;MonoBehaviour&gt;&gt;&#xa;BattleHeroHealthBar" style="swimlane;fontStyle=1;align=center;verticalAlign=top;childLayout=stackLayout;horizontal=1;startSize=40;horizontalStack=0;resizeParent=1;resizeParentMax=0;resizeLast=0;collapsible=1;marginBottom=0;" vertex="1" parent="1">
          <mxGeometry x="590" y="180" width="220" height="70" as="geometry" />
        </mxCell>
        <mxCell id="22" value="" style="line;strokeWidth=1;fillColor=none;align=left;verticalAlign=middle;spacingTop=-1;spacingLeft=3;spacingRight=3;rotatable=0;labelPosition=right;points=[];portConstraint=eastwest;strokeColor=inherit;" vertex="1" parent="21">
          <mxGeometry y="40" width="220" height="8" as="geometry" />
        </mxCell>
        <mxCell id="23" value="+ OnChangeHealth(int, int)" style="text;strokeColor=none;fillColor=none;align=left;verticalAlign=top;spacingLeft=4;spacingRight=4;overflow=hidden;rotatable=0;points=[[0,0.5],[1,0.5]];portConstraint=eastwest;" vertex="1" parent="21">
          <mxGeometry y="48" width="220" height="22" as="geometry" />
        </mxCell>
        
        <!-- Relationships -->
        <!-- BattleField uses BattleGrid -->
        <mxCell id="24" style="edgeStyle=orthogonalEdgeStyle;rounded=0;orthogonalLoop=1;jettySize=auto;html=1;entryX=0.5;entryY=0;entryDx=0;entryDy=0;endArrow=diamondThin;endFill=1;endSize=12;" edge="1" parent="1" source="2" target="6">
          <mxGeometry relative="1" as="geometry" />
        </mxCell>
        
        <!-- BattleGrid has BattleCell -->
        <mxCell id="25" style="edgeStyle=orthogonalEdgeStyle;rounded=0;orthogonalLoop=1;jettySize=auto;html=1;exitX=0;exitY=0.5;exitDx=0;exitDy=0;entryX=1;entryY=0.5;entryDx=0;entryDy=0;endArrow=diamondThin;endFill=0;endSize=12;" edge="1" parent="1" source="7" target="11">
          <mxGeometry relative="1" as="geometry" />
        </mxCell>
        
        <!-- BattleGrid uses Pathfinding -->
        <mxCell id="26" style="edgeStyle=orthogonalEdgeStyle;rounded=0;orthogonalLoop=1;jettySize=auto;html=1;exitX=0.25;exitY=1;exitDx=0;exitDy=0;entryX=0.5;entryY=0;entryDx=0;entryDy=0;endArrow=open;endFill=0;endSize=12;dashed=1;" edge="1" parent="1" source="6" target="14">
          <mxGeometry relative="1" as="geometry">
            <Array as="points">
              <mxPoint x="355" y="480" />
              <mxPoint x="170" y="480" />
            </Array>
          </mxGeometry>
        </mxCell>
        
        <!-- BattleField uses BattleFieldEnemySpawner -->
        <mxCell id="27" style="edgeStyle=orthogonalEdgeStyle;rounded=0;orthogonalLoop=1;jettySize=auto;html=1;entryX=0;entryY=0.5;entryDx=0;entryDy=0;endArrow=diamondThin;endFill=1;endSize=12;" edge="1" parent="1" source="3" target="18">
          <mxGeometry relative="1" as="geometry" />
        </mxCell>
        
        <!-- BattleField uses BattleHeroHealthBar -->
        <mxCell id="28" style="edgeStyle=orthogonalEdgeStyle;rounded=0;orthogonalLoop=1;jettySize=auto;html=1;exitX=1;exitY=0.75;exitDx=0;exitDy=0;entryX=0;entryY=0.25;entryDx=0;entryDy=0;endArrow=diamondThin;endFill=1;endSize=12;" edge="1" parent="1" source="3" target="21">
          <mxGeometry relative="1" as="geometry">
            <Array as="points">
              <mxPoint x="550" y="145" />
              <mxPoint x="550" y="198" />
            </Array>
          </mxGeometry>
        </mxCell>
      </root>
    </mxGraphModel>
  </diagram>
</mxfile> 